<svg width="203" height="68" viewBox="0 0 203 68" fill="none" xmlns="http://www.w3.org/2000/svg">
<path fill-rule="evenodd" clip-rule="evenodd" d="M4.64353 0.304643C4.6182 0.39915 4.66459 0.547565 4.74655 0.634492C4.82851 0.72142 4.98191 1.55935 5.08738 2.49621C5.30726 4.45126 6.13287 6.55465 6.98501 7.33111C7.30747 7.62499 8.04905 8.1788 8.63331 8.56192L9.69569 9.25851L10.076 7.82007C10.9112 4.66142 9.48164 2.21528 5.88879 0.654145C5.22925 0.367746 4.66879 0.210354 4.64353 0.304643ZM13.2313 6.01892C11.647 9.13169 11.2578 11.6845 11.9718 14.2817L12.2969 15.4644L12.789 14.6776C13.0595 14.245 13.6553 13.5198 14.1131 13.0662C15.6556 11.537 15.8991 9.15614 14.8377 5.98363C14.52 5.03393 14.2339 4.25007 14.2019 4.24151C14.1702 4.23301 13.7333 5.03291 13.2313 6.01892ZM42.368 18.4832C34.4953 20.114 28.2992 23.9326 22.1568 30.9392C19.9716 33.4322 16.4291 38.2895 16.5914 38.5707C16.6241 38.627 17.0788 38.1303 17.6021 37.467C19.0515 35.6283 23.2302 31.2708 25.4599 29.2722C31.0975 24.219 37.4097 20.4511 43.1246 18.7278C44.2334 18.3936 45.0406 18.0932 44.9183 18.0605C44.796 18.0277 43.6483 18.218 42.368 18.4832ZM10.0249 9.54649C9.93566 9.59781 10.0268 10.2249 10.2272 10.9396C12.6977 19.7485 11.2964 35.6854 6.6438 51.6916L5.0724 57.0982L3.61082 59.0568C1.66984 61.6574 -0.19591 64.862 0.0165712 65.23C0.125674 65.419 0.337237 65.2221 0.670319 64.6221C1.50821 63.1123 4.04347 59.1611 4.26024 59.0273C4.37326 58.9574 4.36302 59.1643 4.23745 59.4869C4.11195 59.8093 3.46254 61.4986 2.79435 63.2406C2.12616 64.9826 1.48275 66.5652 1.36434 66.7577C1.22387 66.9865 1.26724 67.1392 1.48993 67.1989C1.6772 67.2491 1.85194 67.2174 1.87838 67.1283C1.90481 67.0392 2.19051 66.3562 2.51312 65.6102C2.83594 64.8643 3.70843 62.5883 4.45205 60.5527L5.80431 56.8512L8.12072 54.3181C13.4548 48.4851 20.3119 43.5036 27.1788 40.4724C30.3043 39.0929 35.6749 37.3225 38.3473 36.7909C39.5818 36.5454 40.6318 36.2244 40.6805 36.0772C40.8032 35.7082 40.7361 35.7074 39.0476 36.0597C31.0798 37.7222 23.0802 41.2862 16.4104 46.1454C13.8061 48.0427 9.79777 51.6249 7.81804 53.8244L6.16628 55.6594L7.2822 51.9344C9.16046 45.6642 11.0605 35.6829 11.7225 28.609C12.3648 21.7468 12.1037 15.9968 10.9413 11.4092C10.478 9.58107 10.3646 9.35018 10.0249 9.54649ZM4.73231 8.88863L3.77332 8.78209L4.41156 10.2508C5.4198 12.5703 6.72265 13.8685 8.55482 14.3793C8.97274 14.4959 9.52162 14.7964 9.77459 15.0472C10.4334 15.7004 10.5071 15.6808 10.5397 14.8447C10.6057 13.1593 9.72089 11.2666 8.38421 10.2346C7.60325 9.63135 5.95678 9.02462 4.73231 8.88863ZM15.289 13.3354C14.5839 14.1887 13.7613 15.3668 13.4609 15.9535C12.717 17.4074 12.3137 19.6849 12.5415 21.1464L12.7302 22.3558L13.3785 21.5998C13.7351 21.184 14.4173 20.5767 14.8947 20.2505C16.1724 19.3772 16.9097 17.8118 16.9462 15.8947C16.9617 15.0808 16.8836 13.823 16.7727 13.0993L16.5707 11.7839L15.289 13.3354ZM5.71446 15.5255C6.19106 17.8104 7.20869 19.5291 8.56592 20.3419C9.18374 20.7119 9.9685 21.3061 10.3099 21.6624L10.9303 22.3104L11.0635 21.2554C11.2457 19.8123 10.935 18.5445 10.0603 17.1624C9.30908 15.9755 8.15676 15.1279 6.29159 14.3901L5.40436 14.0392L5.71446 15.5255ZM15.6793 20.9959C13.6356 22.8483 12.8328 24.1386 12.4298 26.2187C12.2629 27.0805 12.165 28.1105 12.2126 28.5075L12.2989 29.2292L12.8107 28.6677C13.0923 28.359 13.8532 27.811 14.5013 27.45C15.7427 26.759 16.7806 25.3995 17.1666 23.959C17.3856 23.1417 17.5586 20.0194 17.4015 19.7191C17.3461 19.613 16.5709 20.1876 15.6793 20.9959ZM6.10542 20.0601C6.02526 20.4209 6.22151 22.545 6.42222 23.4862C6.75847 25.0652 7.34752 25.9814 8.74815 27.1042C9.37702 27.6084 10.0355 28.2385 10.211 28.5046C10.5233 28.9774 10.5357 28.9579 10.7722 27.6141C11.0699 25.9224 10.6634 24.0381 9.72981 22.7818C8.99841 21.7981 6.18801 19.6875 6.10542 20.0601ZM40.9784 30.9907C39.3401 31.3579 37.6937 32.1953 37.1315 32.9472C36.9234 33.2254 36.5221 33.9675 36.2398 34.5963C35.9575 35.225 35.6096 35.8897 35.4668 36.0734C35.2335 36.373 35.2846 36.4015 35.9599 36.3517C38.2057 36.186 40.4949 34.7114 41.7349 32.6315C42.1127 31.9978 42.5176 31.3216 42.6347 31.1288C42.931 30.6409 42.6451 30.6172 40.9784 30.9907ZM45.0999 33.3432C43.7584 33.452 43.0083 33.7623 42.1348 34.5694C40.8696 35.7383 40.8657 35.7131 42.436 36.4363C44.6263 37.4451 46.1177 37.2826 49.0014 35.7209C49.5633 35.4167 50.0392 35.1067 50.0592 35.032C50.1194 34.8073 48.0983 33.8145 47.0084 33.5334C46.4485 33.389 45.5898 33.3035 45.0999 33.3432ZM35.0924 32.1775C33.5485 32.5835 31.6879 33.7363 31.1175 34.6404C30.6333 35.4081 29.672 38.1921 29.8727 38.2459C29.9446 38.2651 30.5256 38.1174 31.1636 37.9176C33.1576 37.2935 34.6858 35.8013 35.8345 33.3574C36.1744 32.6349 36.427 31.9998 36.3963 31.9464C36.3654 31.8932 35.7787 31.9972 35.0924 32.1775ZM15.6604 27.9499C13.3851 29.53 12.5415 30.5676 11.8732 32.6079C11.4832 33.7995 11.3457 34.5774 11.4221 35.1649L11.5316 36.0092L12.0459 35.4484C12.3287 35.14 13.062 34.6666 13.6751 34.3963C15.3718 33.6485 16.1326 32.5887 16.7741 30.079C17.0653 28.9404 17.2742 27.759 17.2384 27.4539C17.1763 26.9233 17.1072 26.9451 15.6604 27.9499ZM5.87081 26.6408C5.69174 30.6079 6.20365 32.2952 8.0094 33.6893C8.39449 33.9867 8.90955 34.5594 9.15369 34.9622L9.59781 35.6946L9.96775 34.2948C10.7019 31.5166 9.63237 28.9531 6.81343 26.7345L5.89902 26.015L5.87081 26.6408ZM29.1442 34.0064C26.3207 35.1558 25.4537 36.0782 24.7523 38.6785C24.4544 39.7832 24.2602 40.6975 24.3208 40.7103C24.5634 40.761 26.4295 39.9082 26.9847 39.4925C28.049 38.6961 28.9655 37.3422 29.6949 35.4892C30.089 34.4876 30.3911 33.6364 30.3661 33.5978C30.341 33.5592 29.7911 33.7432 29.1442 34.0064ZM38.8975 37.1475C37.8087 37.1352 35.8405 37.6934 35.7474 38.041C35.7269 38.1174 35.9615 38.2474 36.2689 38.3297C36.5761 38.412 37.2129 38.871 37.6839 39.3492C38.7947 40.4777 40.4883 40.9366 42.6956 40.7077L44.2306 40.5485L43.3365 39.6195C41.7051 37.924 40.3396 37.1637 38.8975 37.1475ZM14.6957 35.0063C11.9291 36.7288 10.5597 38.7207 10.247 41.4761C10.1172 42.6203 10.2701 42.7926 10.87 42.1772C11.0926 41.9486 11.8645 41.5174 12.5857 41.2186C13.4317 40.8681 14.1425 40.3704 14.5898 39.8152C15.3817 38.8324 16.2866 36.3759 16.4019 34.8958L16.4797 33.8953L14.6957 35.0063ZM22.7711 36.8434C21.9241 37.3322 20.8866 38.1312 20.4651 38.6188C19.7532 39.4428 19.6728 39.6571 19.3245 41.6574L18.9497 43.8094L20.118 43.2104C21.9524 42.2694 22.8899 41.0839 23.628 38.7717C24.572 35.8145 24.5683 35.8058 22.7711 36.8434ZM32.6512 38.7333C32.1139 38.8264 31.3052 39.1315 30.8543 39.411L30.0342 39.9191L30.7086 40.0998C31.0794 40.1992 31.8006 40.612 32.311 41.017C33.5467 41.9973 35.0451 42.24 37.2124 41.8104L38.8543 41.4849L37.5504 40.3699C35.9944 39.0397 34.2478 38.4562 32.6512 38.7333ZM5.18276 33.0662C4.96245 33.9093 4.94931 36.4159 5.16003 37.3945C5.40248 38.5206 5.88737 39.3006 6.91038 40.2102C7.34026 40.5925 7.82012 41.2045 7.97666 41.5701C8.13343 41.9357 8.33332 42.2543 8.42109 42.2778C8.50886 42.3013 8.73863 41.5507 8.93134 40.6099C9.56262 37.53 8.54451 35.2039 5.45858 32.6756C5.3799 32.6112 5.25577 32.7868 5.18276 33.0662ZM28.2043 40.7356C27.4763 40.7622 26.676 41.0158 25.9429 41.4525L24.8085 42.1281L25.4197 42.3562C25.7559 42.4814 26.5774 42.8906 27.2454 43.2654C28.3233 43.8703 28.5878 43.9423 29.5953 43.9063C30.735 43.8657 33.4359 43.1913 33.506 42.9297C33.5647 42.7105 30.7173 41.0301 29.9874 40.8534C29.6265 40.7662 28.8242 40.7131 28.2043 40.7356ZM17.522 39.7331C15.1203 41.3566 14.04 43.0567 14.1996 44.9615C14.2476 45.5347 14.2089 46.3102 14.1136 46.6849L13.9402 47.3659L15.1702 46.5864C16.8141 45.5443 17.6787 44.2452 18.2257 41.9943C18.4595 41.0324 18.6412 39.9647 18.6297 39.6219L18.6088 38.9986L17.522 39.7331ZM24.3196 43.2026C23.3903 43.1106 21.1532 43.8636 20.4865 44.4929L19.8849 45.0606L21.8776 45.758C24.1958 46.5691 24.8803 46.5511 27.1834 45.6181L28.6279 45.033L27.8191 44.5441C26.8073 43.9325 25.1066 43.2805 24.3196 43.2026ZM37.665 49.2251C26.0354 47.6188 13.4243 52.7144 6.16044 61.9546C5.47983 62.8201 4.94259 63.5624 4.96667 63.6038C4.99052 63.6451 5.62985 63.0415 6.38725 62.2622C9.45511 59.1059 14.388 55.7191 18.8616 53.6977C25.4015 50.7424 32.8268 49.4916 39.9404 50.1464L43.0226 50.4302L41.174 49.9423C40.1573 49.674 38.5782 49.3513 37.665 49.2251ZM19.251 46.2117C18.0018 46.3294 17.1751 46.674 16.0246 47.5567C14.8754 48.4382 14.764 48.6983 15.5705 48.6161C15.9023 48.5823 16.7254 48.766 17.3998 49.0245C18.3748 49.398 18.8566 49.4582 19.7537 49.3183C21.0142 49.1219 23.7035 47.791 23.5096 47.4599C23.2442 47.0069 20.2199 46.1204 19.251 46.2117Z" fill="#FFBC11"/>
<path d="M65.6405 22.05C64.2005 22.05 62.9572 21.7367 61.9105 21.11C60.8705 20.4833 60.0672 19.6067 59.5005 18.48C58.9405 17.3533 58.6605 16.0433 58.6605 14.55C58.6605 13.0567 58.9405 11.7467 59.5005 10.62C60.0672 9.49333 60.8705 8.61667 61.9105 7.99C62.9572 7.36333 64.2005 7.05 65.6405 7.05C67.2938 7.05 68.6805 7.46 69.8005 8.28C70.9272 9.1 71.7205 10.21 72.1805 11.61L69.4405 12.37C69.1738 11.4967 68.7238 10.82 68.0905 10.34C67.4572 9.85333 66.6405 9.61 65.6405 9.61C64.7272 9.61 63.9638 9.81333 63.3505 10.22C62.7438 10.6267 62.2872 11.2 61.9805 11.94C61.6738 12.68 61.5205 13.55 61.5205 14.55C61.5205 15.55 61.6738 16.42 61.9805 17.16C62.2872 17.9 62.7438 18.4733 63.3505 18.88C63.9638 19.2867 64.7272 19.49 65.6405 19.49C66.6405 19.49 67.4572 19.2467 68.0905 18.76C68.7238 18.2733 69.1738 17.5967 69.4405 16.73L72.1805 17.49C71.7205 18.89 70.9272 20 69.8005 20.82C68.6805 21.64 67.2938 22.05 65.6405 22.05ZM77.3824 22.05C76.609 22.05 75.9524 21.9033 75.4124 21.61C74.879 21.31 74.4724 20.9133 74.1924 20.42C73.919 19.92 73.7824 19.37 73.7824 18.77C73.7824 18.27 73.859 17.8133 74.0124 17.4C74.1657 16.9867 74.4124 16.6233 74.7524 16.31C75.099 15.99 75.5624 15.7233 76.1424 15.51C76.5424 15.3633 77.019 15.2333 77.5724 15.12C78.1257 15.0067 78.7524 14.9 79.4524 14.8C80.1524 14.6933 80.9224 14.5767 81.7624 14.45L80.7824 14.99C80.7824 14.35 80.629 13.88 80.3224 13.58C80.0157 13.28 79.5024 13.13 78.7824 13.13C78.3824 13.13 77.9657 13.2267 77.5324 13.42C77.099 13.6133 76.7957 13.9567 76.6224 14.45L74.1624 13.67C74.4357 12.7767 74.949 12.05 75.7024 11.49C76.4557 10.93 77.4824 10.65 78.7824 10.65C79.7357 10.65 80.5824 10.7967 81.3224 11.09C82.0624 11.3833 82.6224 11.89 83.0024 12.61C83.2157 13.01 83.3424 13.41 83.3824 13.81C83.4224 14.21 83.4424 14.6567 83.4424 15.15V21.75H81.0624V19.53L81.4024 19.99C80.8757 20.7167 80.3057 21.2433 79.6924 21.57C79.0857 21.89 78.3157 22.05 77.3824 22.05ZM77.9624 19.91C78.4624 19.91 78.8824 19.8233 79.2224 19.65C79.569 19.47 79.8424 19.2667 80.0424 19.04C80.249 18.8133 80.389 18.6233 80.4624 18.47C80.6024 18.1767 80.6824 17.8367 80.7024 17.45C80.729 17.0567 80.7424 16.73 80.7424 16.47L81.5424 16.67C80.7357 16.8033 80.0824 16.9167 79.5824 17.01C79.0824 17.0967 78.679 17.1767 78.3724 17.25C78.0657 17.3233 77.7957 17.4033 77.5624 17.49C77.2957 17.5967 77.079 17.7133 76.9124 17.84C76.7524 17.96 76.6324 18.0933 76.5524 18.24C76.479 18.3867 76.4424 18.55 76.4424 18.73C76.4424 18.9767 76.5024 19.19 76.6224 19.37C76.749 19.5433 76.9257 19.6767 77.1524 19.77C77.379 19.8633 77.649 19.91 77.9624 19.91ZM84.8425 21.75L88.7025 16.29L84.9225 10.95H88.1225L90.2825 14.15L92.4025 10.95H95.6025L91.8225 16.29L95.7025 21.75H92.5025L90.2825 18.43L88.0425 21.75H84.8425ZM99.9214 22.05C99.1481 22.05 98.4914 21.9033 97.9514 21.61C97.4181 21.31 97.0114 20.9133 96.7314 20.42C96.4581 19.92 96.3214 19.37 96.3214 18.77C96.3214 18.27 96.3981 17.8133 96.5514 17.4C96.7048 16.9867 96.9514 16.6233 97.2914 16.31C97.6381 15.99 98.1014 15.7233 98.6814 15.51C99.0814 15.3633 99.5581 15.2333 100.111 15.12C100.665 15.0067 101.291 14.9 101.991 14.8C102.691 14.6933 103.461 14.5767 104.301 14.45L103.321 14.99C103.321 14.35 103.168 13.88 102.861 13.58C102.555 13.28 102.041 13.13 101.321 13.13C100.921 13.13 100.505 13.2267 100.071 13.42C99.6381 13.6133 99.3348 13.9567 99.1614 14.45L96.7014 13.67C96.9748 12.7767 97.4881 12.05 98.2414 11.49C98.9948 10.93 100.021 10.65 101.321 10.65C102.275 10.65 103.121 10.7967 103.861 11.09C104.601 11.3833 105.161 11.89 105.541 12.61C105.755 13.01 105.881 13.41 105.921 13.81C105.961 14.21 105.981 14.6567 105.981 15.15V21.75H103.601V19.53L103.941 19.99C103.415 20.7167 102.845 21.2433 102.231 21.57C101.625 21.89 100.855 22.05 99.9214 22.05ZM100.501 19.91C101.001 19.91 101.421 19.8233 101.761 19.65C102.108 19.47 102.381 19.2667 102.581 19.04C102.788 18.8133 102.928 18.6233 103.001 18.47C103.141 18.1767 103.221 17.8367 103.241 17.45C103.268 17.0567 103.281 16.73 103.281 16.47L104.081 16.67C103.275 16.8033 102.621 16.9167 102.121 17.01C101.621 17.0967 101.218 17.1767 100.911 17.25C100.605 17.3233 100.335 17.4033 100.101 17.49C99.8348 17.5967 99.6181 17.7133 99.4514 17.84C99.2914 17.96 99.1714 18.0933 99.0914 18.24C99.0181 18.3867 98.9814 18.55 98.9814 18.73C98.9814 18.9767 99.0414 19.19 99.1614 19.37C99.2881 19.5433 99.4648 19.6767 99.6914 19.77C99.9181 19.8633 100.188 19.91 100.501 19.91ZM65.1605 42.05C64.0805 42.05 63.1138 41.8867 62.2605 41.56C61.4138 41.2267 60.6938 40.7233 60.1005 40.05C59.5138 39.3767 59.0672 38.53 58.7605 37.51L61.4205 36.85C61.6738 37.6167 62.1105 38.25 62.7305 38.75C63.3505 39.25 64.1005 39.4967 64.9805 39.49C65.6005 39.4767 66.1905 39.3533 66.7505 39.12C67.3172 38.8867 67.7738 38.53 68.1205 38.05C68.3738 37.73 68.5672 37.38 68.7005 37C68.8405 36.6133 68.9405 36.2167 69.0005 35.81H63.9605V33.27H69.0205C68.9005 32.5367 68.6672 31.8933 68.3205 31.34C67.9738 30.7867 67.5205 30.3567 66.9605 30.05C66.4005 29.7433 65.7405 29.5967 64.9805 29.61C64.0805 29.6167 63.3138 29.87 62.6805 30.37C62.0538 30.87 61.6205 31.5367 61.3805 32.37L58.6605 31.99C59.0205 30.4167 59.7638 29.2 60.8905 28.34C62.0172 27.48 63.4405 27.05 65.1605 27.05C66.5538 27.05 67.7572 27.3667 68.7705 28C69.7905 28.6267 70.5772 29.5033 71.1305 30.63C71.6838 31.7567 71.9605 33.0633 71.9605 34.55C71.9605 35.95 71.6872 37.2167 71.1405 38.35C70.6005 39.4833 69.8205 40.3833 68.8005 41.05C67.7872 41.7167 66.5738 42.05 65.1605 42.05ZM73.9327 41.75L73.9527 30.95H76.7127V36.15L80.3727 30.95H83.7327L79.8327 36.35L83.9927 41.75H80.4527L76.7127 36.55V41.75H73.9327ZM89.6525 42.05C88.5659 42.05 87.6125 41.8067 86.7925 41.32C85.9725 40.8333 85.3325 40.1633 84.8725 39.31C84.4192 38.45 84.1925 37.4633 84.1925 36.35C84.1925 35.2233 84.4259 34.2333 84.8925 33.38C85.3592 32.52 86.0025 31.85 86.8225 31.37C87.6425 30.89 88.5859 30.65 89.6525 30.65C90.7392 30.65 91.6925 30.8933 92.5125 31.38C93.3392 31.8667 93.9825 32.54 94.4425 33.4C94.9025 34.2533 95.1325 35.2367 95.1325 36.35C95.1325 37.47 94.8992 38.46 94.4325 39.32C93.9725 40.1733 93.3292 40.8433 92.5025 41.33C91.6825 41.81 90.7325 42.05 89.6525 42.05ZM89.6525 39.51C90.5259 39.51 91.1759 39.2167 91.6025 38.63C92.0359 38.0367 92.2525 37.2767 92.2525 36.35C92.2525 35.39 92.0325 34.6233 91.5925 34.05C91.1592 33.4767 90.5125 33.19 89.6525 33.19C89.0592 33.19 88.5725 33.3233 88.1925 33.59C87.8125 33.8567 87.5292 34.2267 87.3425 34.7C87.1625 35.1733 87.0725 35.7233 87.0725 36.35C87.0725 37.3167 87.2892 38.0867 87.7225 38.66C88.1625 39.2267 88.8059 39.51 89.6525 39.51ZM64.7205 62.05C63.7005 62.05 62.8038 61.9 62.0305 61.6C61.2638 61.3 60.6172 60.9167 60.0905 60.45C59.5638 59.9767 59.1538 59.4833 58.8605 58.97L61.1605 57.37C61.3205 57.7033 61.5472 58.0333 61.8405 58.36C62.1338 58.6867 62.5238 58.9567 63.0105 59.17C63.4972 59.3833 64.1072 59.49 64.8405 59.49C65.5338 59.49 66.0905 59.39 66.5105 59.19C66.9372 58.99 67.2438 58.7333 67.4305 58.42C67.6238 58.1067 67.7205 57.7767 67.7205 57.43C67.7205 56.97 67.5838 56.6167 67.3105 56.37C67.0438 56.1233 66.6972 55.9533 66.2705 55.86C65.8438 55.76 65.3938 55.7033 64.9205 55.69C64.4605 55.6767 64.1272 55.6667 63.9205 55.66C63.7205 55.6533 63.5838 55.65 63.5105 55.65C63.4438 55.65 63.3805 55.65 63.3205 55.65V53.09C63.4072 53.09 63.5338 53.09 63.7005 53.09C63.8738 53.09 64.0472 53.09 64.2205 53.09C64.4005 53.0833 64.5472 53.0767 64.6605 53.07C65.3605 53.0367 65.9438 52.8833 66.4105 52.61C66.8838 52.3367 67.1205 51.91 67.1205 51.33C67.1205 50.7967 66.9105 50.3733 66.4905 50.06C66.0772 49.7467 65.5205 49.59 64.8205 49.59C64.1605 49.59 63.5705 49.7333 63.0505 50.02C62.5372 50.3 62.1605 50.61 61.9205 50.95L60.0605 48.95C60.5605 48.43 61.2305 47.9833 62.0705 47.61C62.9105 47.2367 63.8538 47.05 64.9005 47.05C65.5338 47.05 66.1538 47.1333 66.7605 47.3C67.3672 47.46 67.9138 47.71 68.4005 48.05C68.8872 48.3833 69.2738 48.8133 69.5605 49.34C69.8538 49.8667 70.0005 50.4967 70.0005 51.23C70.0005 51.85 69.8905 52.4367 69.6705 52.99C69.4505 53.5367 69.1338 53.9967 68.7205 54.37C69.3205 54.6367 69.7838 55.0233 70.1105 55.53C70.4372 56.0367 70.6005 56.67 70.6005 57.43C70.6005 58.3833 70.3338 59.2067 69.8005 59.9C69.2738 60.5867 68.5638 61.1167 67.6705 61.49C66.7838 61.8633 65.8005 62.05 64.7205 62.05ZM77.8203 62.05C76.7137 62.05 75.737 61.8133 74.8903 61.34C74.0503 60.86 73.3903 60.2033 72.9103 59.37C72.437 58.53 72.2003 57.57 72.2003 56.49C72.2003 55.31 72.4337 54.2833 72.9003 53.41C73.367 52.5367 74.0103 51.86 74.8303 51.38C75.6503 50.8933 76.5937 50.65 77.6603 50.65C78.7937 50.65 79.757 50.9167 80.5503 51.45C81.3437 51.9833 81.9303 52.7333 82.3103 53.7C82.6903 54.6667 82.8237 55.8033 82.7103 57.11H80.0203V56.11C80.0203 55.01 79.8437 54.22 79.4903 53.74C79.1437 53.2533 78.5737 53.01 77.7803 53.01C76.8537 53.01 76.1703 53.2933 75.7303 53.86C75.297 54.42 75.0803 55.25 75.0803 56.35C75.0803 57.3567 75.297 58.1367 75.7303 58.69C76.1703 59.2367 76.8137 59.51 77.6603 59.51C78.1937 59.51 78.6503 59.3933 79.0303 59.16C79.4103 58.9267 79.7003 58.59 79.9003 58.15L82.6203 58.93C82.2137 59.9167 81.5703 60.6833 80.6903 61.23C79.817 61.7767 78.8603 62.05 77.8203 62.05ZM74.2403 57.11V55.09H81.4003V57.11H74.2403ZM90.2683 62.05C89.195 62.05 88.2983 61.8 87.5783 61.3C86.8583 60.8 86.315 60.12 85.9483 59.26C85.5883 58.4 85.4083 57.43 85.4083 56.35C85.4083 55.27 85.5883 54.3 85.9483 53.44C86.3083 52.58 86.8383 51.9 87.5383 51.4C88.2383 50.9 89.1016 50.65 90.1283 50.65C91.1616 50.65 92.0616 50.8967 92.8283 51.39C93.595 51.8833 94.1883 52.56 94.6083 53.42C95.035 54.2733 95.2483 55.25 95.2483 56.35C95.2483 57.43 95.0383 58.4 94.6183 59.26C94.205 60.12 93.625 60.8 92.8783 61.3C92.1316 61.8 91.2616 62.05 90.2683 62.05ZM84.9483 66.55V50.95H87.3483V58.35H87.6883V66.55H84.9483ZM89.8283 59.63C90.415 59.63 90.895 59.4833 91.2683 59.19C91.6416 58.8967 91.9183 58.5033 92.0983 58.01C92.2783 57.51 92.3683 56.9567 92.3683 56.35C92.3683 55.75 92.275 55.2033 92.0883 54.71C91.9016 54.21 91.6116 53.8133 91.2183 53.52C90.8316 53.22 90.335 53.07 89.7283 53.07C89.1616 53.07 88.7016 53.2067 88.3483 53.48C88.0016 53.7533 87.7483 54.1367 87.5883 54.63C87.4283 55.1233 87.3483 55.6967 87.3483 56.35C87.3483 57.0033 87.4283 57.5767 87.5883 58.07C87.7483 58.5633 88.0083 58.9467 88.3683 59.22C88.735 59.4933 89.2216 59.63 89.8283 59.63ZM97.4288 61.75V50.95H100.149V55.07H104.589V50.95H107.309V61.75H104.589V57.61H100.149V61.75H97.4288ZM114.965 62.05C113.878 62.05 112.925 61.8067 112.105 61.32C111.285 60.8333 110.645 60.1633 110.185 59.31C109.732 58.45 109.505 57.4633 109.505 56.35C109.505 55.2233 109.738 54.2333 110.205 53.38C110.672 52.52 111.315 51.85 112.135 51.37C112.955 50.89 113.898 50.65 114.965 50.65C116.052 50.65 117.005 50.8933 117.825 51.38C118.652 51.8667 119.295 52.54 119.755 53.4C120.215 54.2533 120.445 55.2367 120.445 56.35C120.445 57.47 120.212 58.46 119.745 59.32C119.285 60.1733 118.642 60.8433 117.815 61.33C116.995 61.81 116.045 62.05 114.965 62.05ZM114.965 59.51C115.838 59.51 116.488 59.2167 116.915 58.63C117.348 58.0367 117.565 57.2767 117.565 56.35C117.565 55.39 117.345 54.6233 116.905 54.05C116.472 53.4767 115.825 53.19 114.965 53.19C114.372 53.19 113.885 53.3233 113.505 53.59C113.125 53.8567 112.842 54.2267 112.655 54.7C112.475 55.1733 112.385 55.7233 112.385 56.35C112.385 57.3167 112.602 58.0867 113.035 58.66C113.475 59.2267 114.118 59.51 114.965 59.51Z" fill="#222222"/>
</svg>
